<svg width="457" height="177" viewBox="0 0 457 177" fill="none" xmlns="http://www.w3.org/2000/svg">
<g clip-path="url(#clip0_148_1135)">
<path d="M338.43 31.31C310.21 31.31 285.76 47.41 273.76 70.94C273.76 70.96 273.78 70.98 273.79 71C278.95 80.22 280.98 88.34 281.64 99.51V108.21C281.03 118.49 278.28 128.19 273.82 136.88C285.83 160.35 310.26 176.41 338.43 176.41C350.66 176.41 362.17 173.39 372.28 168.05V176.41H410.97V103.86C410.97 63.79 378.49 31.31 338.42 31.31H338.43ZM338.43 137.71C319.73 137.71 304.57 122.55 304.57 103.85C304.57 85.15 319.73 70 338.43 70C357.13 70 372.28 85.16 372.28 103.85C372.28 122.54 357.12 137.71 338.43 137.71Z" fill="url(#paint0_linear_148_1135)"/>
<path d="M456.9 19.34C456.9 30.03 448.24 38.69 437.55 38.69C426.86 38.69 418.2 30.03 418.2 19.34C418.2 8.65 426.86 0 437.55 0C448.24 0 456.9 8.66 456.9 19.34Z" fill="url(#paint1_linear_148_1135)"/>
<path d="M456.9 50.04H418.2V176.4H456.9V50.04Z" fill="url(#paint2_linear_148_1135)"/>
<path d="M266.57 70.99C266.57 70.99 266.55 70.95 266.54 70.93C254.54 47.41 230.09 31.3 201.88 31.3C189.65 31.3 178.14 34.33 168.03 39.67V0H129.33V58.72C116.04 42.02 95.55 31.3 72.55 31.3C32.48 31.31 0 63.79 0 103.86C0 143.93 32.48 176.41 72.55 176.41C100.78 176.41 125.22 160.28 137.21 136.74C148.91 159.7 172.46 175.62 199.82 176.38C199.88 176.38 199.94 176.38 200.01 176.38C200.63 176.4 201.25 176.4 201.88 176.4H202C202.13 176.4 202.25 176.4 202.38 176.4C202.98 176.4 203.58 176.38 204.17 176.37C209.54 176.21 214.77 175.45 219.8 174.18C220.36 174.04 220.91 173.89 221.47 173.74C221.97 173.6 222.48 173.46 222.97 173.31C223.13 173.26 223.29 173.21 223.45 173.16C223.88 173.03 224.32 172.89 224.74 172.74C225.16 172.61 225.57 172.46 225.98 172.32C226.54 172.13 227.09 171.92 227.65 171.71C227.89 171.62 228.14 171.53 228.38 171.43C228.69 171.31 229 171.19 229.3 171.06C229.56 170.95 229.82 170.84 230.09 170.73C230.11 170.73 230.12 170.72 230.15 170.71C230.68 170.48 231.21 170.25 231.74 170.02C246.77 163.22 259.07 151.44 266.55 136.8C271.59 126.92 274.43 115.73 274.43 103.88C274.43 92.03 271.6 80.89 266.58 71.02L266.57 70.99ZM72.55 137.71C53.85 137.71 38.69 122.55 38.69 103.85C38.69 85.15 53.85 69.99 72.55 69.99C91.25 69.99 106.41 85.15 106.41 103.85C106.41 122.55 91.25 137.71 72.55 137.71ZM202.15 137.71C202.06 137.71 201.97 137.71 201.88 137.71C193.12 137.71 185.13 134.38 179.12 128.91C179.11 128.9 179.09 128.89 179.08 128.88C172.28 122.69 168.02 113.77 168.02 103.85C168.02 85.16 183.18 70 201.88 70C220.58 70 235.73 85.16 235.73 103.85C235.73 122.54 220.73 137.56 202.15 137.7V137.71Z" fill="url(#paint3_linear_148_1135)"/>
<path d="M72.7302 70C137.89 70 135.75 140.96 202.38 143.44C243.35 144.97 278.66 117.06 267.8 73.29C272.06 81.6 273.82 89.27 274.42 99.5V108.2C273.81 118.48 271.06 128.18 266.6 136.87C259.1 151.47 246.78 163.22 231.74 169.99C231.21 170.23 230.68 170.47 230.15 170.68C230.13 170.69 230.11 170.7 230.09 170.7C229.82 170.81 229.56 170.92 229.3 171.03C228.99 171.16 228.68 171.28 228.38 171.4C228.14 171.49 227.9 171.58 227.65 171.68C227.09 171.89 226.54 172.1 225.98 172.29C225.57 172.43 225.16 172.58 224.74 172.71C224.31 172.85 223.88 172.99 223.45 173.13C223.29 173.18 223.13 173.23 222.97 173.28C222.48 173.43 221.97 173.57 221.47 173.71C220.91 173.87 220.36 174.02 219.8 174.15C214.78 175.42 209.55 176.17 204.17 176.34C203.58 176.36 202.98 176.37 202.38 176.37C202.25 176.37 202.13 176.37 202 176.37H201.98C201.98 176.37 201.87 176.37 201.82 176.37C201.21 176.37 200.6 176.37 200 176.35C199.93 176.35 199.87 176.35 199.81 176.35C157.96 175.39 141.09 145.13 126.86 122.45C110.9 96.99 99.8502 69.97 72.7102 69.97C71.2702 69.97 69.8502 70.06 68.4502 70.24" fill="url(#paint4_linear_148_1135)"/>
<path d="M202.38 137.75C135.74 135.27 143.74 65.2 72.55 65.2C27.29 65.2 7.45 110.22 9.16 139.12C3.92 129.1 0 115.94 0 103.85C0 63.79 32.55 31.31 72.73 31.31C95.77 31.92 112.85 39.23 129.33 58.72C135.79 66.36 142.16 75.85 148.75 87.55C158.45 104.74 167.87 119.85 179.08 128.88C179.09 128.89 179.11 128.9 179.12 128.91C185.97 134.42 193.49 137.65 202.15 137.7C202.23 137.7 202.3 137.7 202.38 137.7V137.74" fill="url(#paint5_linear_148_1135)"/>
</g>
<defs>
<linearGradient id="paint0_linear_148_1135" x1="342.365" y1="31.31" x2="342.365" y2="176.41" gradientUnits="userSpaceOnUse">
<stop stop-color="#FFBB00"/>
<stop offset="1" stop-color="#FF8C00"/>
</linearGradient>
<linearGradient id="paint1_linear_148_1135" x1="437.55" y1="0" x2="437.55" y2="38.69" gradientUnits="userSpaceOnUse">
<stop stop-color="#FFFF00"/>
<stop offset="1" stop-color="#FFB700"/>
</linearGradient>
<linearGradient id="paint2_linear_148_1135" x1="437.55" y1="50.04" x2="437.55" y2="176.4" gradientUnits="userSpaceOnUse">
<stop stop-color="#FFBB00"/>
<stop offset="1" stop-color="#FF8C00"/>
</linearGradient>
<linearGradient id="paint3_linear_148_1135" x1="137.215" y1="0" x2="137.215" y2="176.41" gradientUnits="userSpaceOnUse">
<stop stop-color="#FFBB00"/>
<stop offset="1" stop-color="#FF8C00"/>
</linearGradient>
<linearGradient id="paint4_linear_148_1135" x1="171.435" y1="69.97" x2="171.435" y2="176.37" gradientUnits="userSpaceOnUse">
<stop stop-color="#FFFF00"/>
<stop offset="1" stop-color="#FFB700"/>
</linearGradient>
<linearGradient id="paint5_linear_148_1135" x1="101.19" y1="31.31" x2="101.19" y2="139.12" gradientUnits="userSpaceOnUse">
<stop stop-color="#FF711E"/>
<stop offset="1" stop-color="#FF471E"/>
</linearGradient>
<clipPath id="clip0_148_1135">
<rect width="456.9" height="176.96" fill="white"/>
</clipPath>
</defs>
</svg>
